<svg width="45" height="45" viewBox="0 0 45 45" fill="none" xmlns="http://www.w3.org/2000/svg">
<path fill-rule="evenodd" clip-rule="evenodd" d="M17.9297 23.9899C17.3761 23.57 16.6378 23.3611 15.7296 23.3611H11.1427V28.6381H15.6451C16.0615 28.6381 16.4566 28.6012 16.8282 28.518C17.2055 28.4355 17.5402 28.3048 17.8224 28.1115C18.1045 27.9257 18.3382 27.6709 18.5082 27.3469C18.6787 27.0258 18.7604 26.6086 18.7604 26.1048C18.7604 25.117 18.4825 24.416 17.9297 23.9899Z" fill="#FF005C"/>
<path fill-rule="evenodd" clip-rule="evenodd" d="M17.2687 19.9438C17.754 19.5895 17.9893 19.004 17.9893 18.2011C17.9893 17.7551 17.9112 17.3866 17.754 17.1007C17.5914 16.8147 17.376 16.5909 17.1039 16.4342C16.8339 16.2711 16.529 16.1585 16.1751 16.0977C15.8277 16.0298 15.4631 16.0032 15.09 16.0032H11.1425V20.481H15.4119C16.1596 20.481 16.7785 20.3037 17.2687 19.9438Z" fill="#FF005C"/>
<path fill-rule="evenodd" clip-rule="evenodd" d="M0 0V45H45V0H0ZM27.2607 14.0244H35.0284V15.9154H27.2607V14.0244ZM22.4115 28.8501C22.0364 29.5626 21.5254 30.1399 20.8957 30.5855C20.2612 31.035 19.5321 31.3646 18.7155 31.5792C17.9083 31.7938 17.0698 31.9018 16.2114 31.9018H6.92308V12.7389H15.9578C16.8745 12.7389 17.7016 12.8181 18.4577 12.982C19.2096 13.1415 19.8512 13.4076 20.3934 13.7725C20.9271 14.1374 21.3449 14.6227 21.644 15.2342C21.9361 15.8365 22.0825 16.5909 22.0825 17.4826C22.0825 18.4473 21.8637 19.2531 21.4259 19.8972C20.9846 20.5403 20.3366 21.068 19.4704 21.4777C20.65 21.8166 21.5234 22.4136 22.1024 23.2623C22.6845 24.1169 22.9694 25.1394 22.9694 26.3383C22.9693 27.31 22.7832 28.1468 22.4115 28.8501ZM38.0527 25.8816H28.0402C28.0402 26.9784 28.4111 28.017 28.984 28.5744C29.5545 29.1319 30.3795 29.4122 31.4483 29.4122C32.2171 29.4122 32.8815 29.2179 33.4387 28.8306C33.9908 28.4437 34.3269 28.0301 34.4569 27.6005H37.8132C37.2738 29.2708 36.4552 30.4631 35.3388 31.1809C34.2353 31.9018 32.8893 32.261 31.3211 32.261C30.2281 32.261 29.2447 32.0841 28.3614 31.7356C27.4788 31.3827 26.7412 30.8882 26.1209 30.2437C25.5161 29.596 25.0464 28.8307 24.7117 27.9314C24.3806 27.037 24.2136 26.0468 24.2136 24.9737C24.2136 23.9362 24.3869 22.9669 24.7259 22.0712C25.0719 21.1723 25.5502 20.3967 26.1791 19.7461C26.8094 19.092 27.5569 18.5757 28.4274 18.1988C29.298 17.8232 30.2579 17.6342 31.3211 17.6342C32.4949 17.6342 33.5232 17.8601 34.4044 18.3202C35.2827 18.774 36.0026 19.3891 36.5682 20.159C37.1338 20.9276 37.536 21.8066 37.7876 22.7925C38.0371 23.7768 38.1245 24.8051 38.0527 25.8816Z" fill="#FF005C"/>
<path fill-rule="evenodd" clip-rule="evenodd" d="M31.2067 20.5119C30.5977 20.5119 30.0938 20.6142 29.6903 20.8231C29.2959 21.0292 28.9726 21.2857 28.7253 21.5877C28.4795 21.8947 28.3117 22.2187 28.2144 22.5652C28.1164 22.9027 28.0581 23.209 28.0403 23.4798H34.2411C34.1502 22.508 33.8175 21.7896 33.3628 21.2844C32.91 20.783 32.1426 20.5119 31.2067 20.5119Z" fill="#FF005C"/>
</svg>
