<svg width="45" height="45" viewBox="0 0 45 45" fill="none" xmlns="http://www.w3.org/2000/svg">
<path d="M43.6497 0H1.35079C0.708871 0 0.188629 0.520242 0.188629 1.16217V43.8378C0.188629 44.4798 0.708871 45 1.35079 45H15.4123V44.9898C16.0469 44.9825 16.5332 44.6272 16.5555 44.026C16.6132 42.4634 16.5725 40.8974 16.5725 39.3867C15.4399 39.4395 14.3587 39.5826 13.2897 39.5209C10.932 39.3852 9.12019 38.3791 8.18056 36.0704C7.62396 34.7027 6.78525 33.5328 5.47906 32.7522C5.23514 32.6063 5.02188 32.3914 4.83523 32.1732C4.59131 31.8887 4.63694 31.5963 5.02235 31.5182C5.41117 31.4392 5.83595 31.384 6.21937 31.4557C7.72528 31.7383 8.76663 32.6828 9.56375 33.939C11.1399 36.4242 13.5661 37.185 16.2956 36.0373C16.4478 35.9733 16.6412 35.8182 16.6699 35.6766C16.89 34.5765 17.3011 33.5734 18.1297 32.694C17.2085 32.5233 16.3553 32.3977 15.5184 32.2037C13.1088 31.6462 10.9441 30.6431 9.3611 28.6508C8.06957 27.0257 7.47898 25.1233 7.20749 23.0986C6.78232 19.9273 7.16289 16.9588 9.34074 14.4245C9.45078 14.2965 9.51044 14.0342 9.46148 13.8747C8.91604 12.0925 8.99938 10.3252 9.53998 8.56288C9.82367 7.63734 9.90266 7.59124 10.8471 7.72021C10.9049 7.72797 10.961 7.74247 11.0183 7.75221C12.9115 8.06545 14.5411 8.98219 16.1463 9.96643C16.3621 10.0988 16.6908 10.1812 16.9279 10.1235C20.762 9.19316 24.5887 9.19704 28.4223 10.1269C28.6448 10.1807 28.9421 10.1041 29.1548 9.99265C30.0275 9.53642 30.8629 9.00604 31.7468 8.57349C32.7751 8.07076 33.8582 7.69256 35.0242 7.71339C35.2283 7.71728 35.544 7.91216 35.6123 8.09254C36.3138 9.95138 36.4617 11.8456 35.9027 13.7801C35.843 13.9866 35.9318 14.2809 36.0428 14.4845C36.5946 15.4969 37.3649 16.4311 37.7141 17.505C38.7783 20.7781 38.3904 24.0192 36.9417 27.0954C35.6142 29.9152 33.1523 31.344 30.238 32.081C29.2538 32.3298 28.2454 32.481 27.1836 32.6895C28.575 34.1431 28.7932 35.917 28.7685 37.7748C28.7428 39.6913 28.7496 41.6084 28.7486 43.5254C28.7481 44.4538 29.1534 44.9668 29.8608 44.9968C29.8603 44.9998 44.8115 44.9998 44.8115 44.9998V1.16217C44.8114 0.520242 44.2912 0 43.6497 0Z" fill="#BEFF04"/>
</svg>
