<svg width="45" height="45" viewBox="0 0 45 45" fill="none" xmlns="http://www.w3.org/2000/svg">
<path fill-rule="evenodd" clip-rule="evenodd" d="M24.3692 20.2104V20.1447C24.3558 20.1667 24.3372 20.1888 24.3255 20.2104H24.3692Z" fill="#BEFF04"/>
<path fill-rule="evenodd" clip-rule="evenodd" d="M0 0V45H45V0H0ZM13.9967 37.3848H7.32026V17.2984H13.9967V37.3848ZM10.6585 14.5569H10.6144C8.37475 14.5569 6.92308 13.0139 6.92308 11.0853C6.92308 9.11443 8.41718 7.61519 10.7022 7.61519C12.9877 7.61519 14.3922 9.11443 14.4359 11.0853C14.4359 13.0139 12.9877 14.5569 10.6585 14.5569ZM38.0769 37.3848H31.3987V26.6385C31.3987 23.9394 30.4338 22.097 28.0168 22.097C26.1709 22.097 25.074 23.3375 24.5908 24.5391C24.4151 24.9684 24.3692 25.565 24.3692 26.167V37.3849H17.6897C17.6897 37.3849 17.7793 19.1829 17.6897 17.2985H24.3692V20.1448C25.2567 18.7792 26.8404 16.8269 30.388 16.8269C34.7828 16.8269 38.0769 19.697 38.0769 25.8663V37.3848Z" fill="#BEFF04"/>
</svg>
