<svg width="100" height="100" viewBox="0 0 100 100" fill="none" xmlns="http://www.w3.org/2000/svg">
<circle cx="50" cy="50" r="50" fill="#BEFF04"/>
<path d="M41.344 48.028C41.344 48.028 41.9013 47.99 43.016 47.914C44.8147 47.914 46.1447 48.256 47.006 48.94C47.8927 49.5987 48.336 50.5487 48.336 51.79C48.336 53.006 47.7787 54.4373 46.664 56.084C45.5493 57.7307 44.1053 59.2253 42.332 60.568H44.498C45.3847 60.568 46.0053 60.53 46.36 60.454C46.7147 60.378 46.9173 60.34 46.968 60.34C47.3227 60.34 47.5 60.53 47.5 60.91C47.5 61.29 47.2467 61.4927 46.74 61.518C44.7893 61.518 42.9147 61.4927 41.116 61.442C38.2787 63.2407 35.492 64.14 32.756 64.14C31.464 64.14 30.438 63.8993 29.678 63.418C28.918 62.9367 28.538 62.4553 28.538 61.974C28.538 61.4673 28.7407 61.0747 29.146 60.796C29.5767 60.5173 30.172 60.378 30.932 60.378C33.896 60.378 37.2147 60.4413 40.888 60.568C42.408 59.3267 43.624 57.8953 44.536 56.274C45.448 54.6273 45.904 53.1453 45.904 51.828C45.904 49.7253 44.7767 48.674 42.522 48.674C41.6353 48.674 40.7107 48.8133 39.748 49.092C38.8107 49.3707 38.2407 49.5733 38.038 49.7C37.8607 49.8013 37.7467 49.852 37.696 49.852C37.544 49.852 37.468 49.7507 37.468 49.548C37.468 49.32 37.7973 49.054 38.456 48.75C41.344 47.3567 44.1687 45.5073 46.93 43.202C49.6913 40.8713 51.072 39.212 51.072 38.224C51.072 37.768 50.7173 37.54 50.008 37.54C47.12 37.5653 43.1553 39.7313 38.114 44.038C37.1007 46.6473 35.4287 49.852 33.098 53.652C30.7927 57.452 28.3733 60.8467 25.84 63.836C23.3067 66.8507 21.4193 68.358 20.178 68.358C19.418 68.358 19.038 67.9653 19.038 67.18C19.038 65.3813 20.7353 62.1767 24.13 57.566C27.55 52.9553 31.4133 48.712 35.72 44.836C36.48 42.9867 36.86 41.644 36.86 40.808C36.86 39.9467 36.6573 39.2753 36.252 38.794C35.8467 38.2873 35.2513 37.92 34.466 37.692C33.2247 37.3627 31.9073 37.198 30.514 37.198C29.146 37.198 28.0947 37.236 27.36 37.312C26.6253 37.3627 25.726 37.4893 24.662 37.692C23.6233 37.8693 22.7747 38.1987 22.116 38.68C21.4573 39.136 21.128 39.7313 21.128 40.466C21.128 41.1753 21.4827 41.7327 22.192 42.138C22.9013 42.518 23.7627 42.784 24.776 42.936C25.8147 43.088 26.8407 43.2527 27.854 43.43C28.8673 43.6073 29.7287 43.962 30.438 44.494C31.1473 45.0007 31.502 45.7227 31.502 46.66C31.502 46.9133 31.4387 47.04 31.312 47.04C31.2107 47.04 31.122 47.002 31.046 46.926C30.9953 46.85 30.894 46.698 30.742 46.47C30.514 46.1407 30.172 45.8873 29.716 45.71C29.2853 45.5327 28.6013 45.368 27.664 45.216C26.752 45.0387 25.878 44.8613 25.042 44.684C24.2313 44.4813 23.408 44.228 22.572 43.924C21.736 43.62 21.0647 43.1893 20.558 42.632C20.0513 42.0747 19.798 41.4287 19.798 40.694C19.798 39.934 20.1147 39.2627 20.748 38.68C21.3813 38.0973 22.2173 37.6413 23.256 37.312C25.384 36.6787 27.6007 36.362 29.906 36.362C35.8847 36.362 38.874 37.9327 38.874 41.074C38.874 41.3527 38.8107 41.7707 38.684 42.328C43.8013 38.1987 47.956 36.134 51.148 36.134C52.5667 36.134 53.276 36.5647 53.276 37.426C53.276 38.6673 51.9713 40.428 49.362 42.708C46.778 44.988 44.1053 46.7613 41.344 48.028ZM21.128 67.256C21.8627 67.256 23.826 64.9127 27.018 60.226C30.2353 55.514 32.8067 51.1313 34.732 47.078C30.932 50.7007 27.5627 54.4753 24.624 58.402C21.7107 62.3033 20.254 64.9633 20.254 66.382C20.254 66.9647 20.5453 67.256 21.128 67.256ZM39.71 61.404L32.832 61.252C30.8813 61.252 29.906 61.5433 29.906 62.126C29.906 62.4553 30.2353 62.7593 30.894 63.038C31.5527 63.342 32.3127 63.494 33.174 63.494C35.4287 63.494 37.6073 62.7973 39.71 61.404ZM50.5911 63.608C50.0844 63.608 49.8311 63.3547 49.8311 62.848C49.8311 61.48 51.3637 58.8833 54.4291 55.058C57.5197 51.2327 60.7371 47.9393 64.0811 45.178C65.2971 42.6193 65.9051 40.6307 65.9051 39.212C65.9051 37.5147 65.0564 36.666 63.3591 36.666C61.7631 36.666 59.8757 37.464 57.6971 39.06C55.5437 40.656 53.7197 42.442 52.2251 44.418C50.7304 46.3687 49.9831 47.9013 49.9831 49.016C49.9831 49.8267 50.4517 50.232 51.3891 50.232C52.7317 50.232 54.1884 49.548 55.7591 48.18C57.3551 46.812 58.5457 45.482 59.3311 44.19C59.6097 43.734 59.8377 43.506 60.0151 43.506C60.1924 43.506 60.2811 43.5947 60.2811 43.772C60.2811 43.9493 60.2304 44.1013 60.1291 44.228C59.2677 45.52 57.8997 47.002 56.0251 48.674C54.1504 50.346 52.4404 51.182 50.8951 51.182C49.3497 51.182 48.5771 50.612 48.5771 49.472C48.5771 48.484 49.1091 47.2047 50.1731 45.634C51.2371 44.0633 52.5291 42.556 54.0491 41.112C55.5944 39.6427 57.3171 38.3887 59.2171 37.35C61.1424 36.286 62.8524 35.754 64.3471 35.754C66.2977 35.754 67.2731 36.7167 67.2731 38.642C67.2731 39.9087 66.8171 41.6187 65.9051 43.772C68.4131 41.9227 70.4271 40.998 71.9471 40.998C72.8591 40.998 73.3151 41.4793 73.3151 42.442C73.3151 43.4047 72.4664 45.2793 70.7691 48.066C69.0717 50.8273 67.3744 53.3227 65.6771 55.552L63.1311 58.934C63.1311 58.9847 63.1437 59.01 63.1691 59.01C64.1317 58.3513 65.8164 56.9073 68.2231 54.678C70.6551 52.4487 72.8844 50.5233 74.9111 48.902C76.9631 47.2807 78.4831 46.47 79.4711 46.47C80.0537 46.47 80.3451 46.7613 80.3451 47.344C80.3451 47.9267 79.5851 49.2313 78.0651 51.258C76.5451 53.2847 75.0251 55.362 73.5051 57.49C71.9851 59.618 71.2251 61.0873 71.2251 61.898C71.2251 62.7087 71.5671 63.114 72.2511 63.114C73.0364 63.114 74.0624 62.7213 75.3291 61.936C76.5957 61.1253 77.4824 60.4793 77.9891 59.998C78.4957 59.5167 78.8124 59.276 78.9391 59.276C79.0657 59.276 79.1291 59.3267 79.1291 59.428C79.1291 59.732 78.6984 60.2513 77.8371 60.986C77.0011 61.7207 75.9371 62.4173 74.6451 63.076C73.3784 63.7347 72.2891 64.064 71.3771 64.064C70.1611 64.064 69.5531 63.57 69.5531 62.582C69.5531 61.5687 69.9711 60.34 70.8071 58.896C71.6684 57.452 72.6057 56.1093 73.6191 54.868C76.5071 51.4227 78.1157 49.1427 78.4451 48.028C78.4451 47.7493 78.3184 47.61 78.0651 47.61C77.4571 47.61 75.5824 48.978 72.4411 51.714C69.2997 54.45 66.9944 56.5273 65.5251 57.946C64.0557 59.3647 63.0677 60.3273 62.5611 60.834C62.0544 61.3407 61.6617 61.746 61.3831 62.05C61.1044 62.354 60.8257 62.6327 60.5471 62.886C60.0151 63.3673 59.6604 63.608 59.4831 63.608C59.4577 63.608 59.4324 63.5953 59.4071 63.57C59.1791 63.4687 59.0651 63.2913 59.0651 63.038C59.0651 62.4047 59.8757 61.0747 61.4971 59.048C64.3597 55.5013 66.7917 52.132 68.7931 48.94C70.8197 45.748 71.8331 43.62 71.8331 42.556C71.8331 42.1507 71.5797 41.948 71.0731 41.948C69.8317 41.948 67.8811 43.0627 65.2211 45.292C63.2957 49.244 60.6611 53.2847 57.3171 57.414C53.9731 61.5433 51.7311 63.608 50.5911 63.608ZM51.4271 62.62C52.0857 62.62 53.7451 60.8973 56.4051 57.452C59.0651 53.9813 61.3071 50.536 63.1311 47.116C60.2431 49.776 57.4944 52.7273 54.8851 55.97C52.3011 59.1873 51.0091 61.2647 51.0091 62.202C51.0091 62.4807 51.1484 62.62 51.4271 62.62Z" fill="#1B1415"/>
<path d="M41.344 48.028L40.9271 47.1191L41.412 49.0257L41.344 48.028ZM43.016 47.914V46.914H42.982L42.948 46.9163L43.016 47.914ZM47.006 48.94L46.3841 49.7231L46.3967 49.7331L46.4097 49.7427L47.006 48.94ZM46.664 56.084L47.4921 56.6446L46.664 56.084ZM42.332 60.568L41.7284 59.7707L39.3546 61.568H42.332V60.568ZM46.74 61.518V62.518H46.765L46.7899 62.5168L46.74 61.518ZM41.116 61.442L41.1442 60.4424L40.8387 60.4338L40.5806 60.5974L41.116 61.442ZM29.678 63.418L29.1429 64.2628L29.678 63.418ZM29.146 60.796L28.6027 59.9564L28.591 59.964L28.5795 59.972L29.146 60.796ZM40.888 60.568L40.8535 61.5674L41.2293 61.5804L41.5205 61.3425L40.888 60.568ZM44.536 56.274L45.4076 56.7643L45.4108 56.7585L44.536 56.274ZM39.748 49.092L39.4699 48.1314L39.463 48.1335L39.748 49.092ZM38.038 49.7L38.5341 50.5682L38.5513 50.5585L38.568 50.548L38.038 49.7ZM38.456 48.75L38.8751 49.658L38.8828 49.6544L38.8905 49.6507L38.456 48.75ZM46.93 43.202L47.5709 43.9697L47.575 43.9662L46.93 43.202ZM50.008 37.54V36.54L49.9992 36.54L50.008 37.54ZM38.114 44.038L37.4645 43.2777L37.273 43.4412L37.1818 43.676L38.114 44.038ZM33.098 53.652L32.2456 53.1292L32.243 53.1333L33.098 53.652ZM25.84 63.836L25.0771 63.1895L25.0744 63.1927L25.84 63.836ZM24.13 57.566L23.3268 56.9702L23.3247 56.9731L24.13 57.566ZM35.72 44.836L36.389 45.5793L36.5583 45.4269L36.6449 45.2161L35.72 44.836ZM36.252 38.794L35.4711 39.4187L35.479 39.4285L35.4871 39.4381L36.252 38.794ZM34.466 37.692L34.7448 36.7317L34.7337 36.7284L34.7224 36.7254L34.466 37.692ZM27.36 37.312L27.4288 38.3096L27.4459 38.3085L27.4629 38.3067L27.36 37.312ZM24.662 37.692L24.8303 38.6777L24.8397 38.6761L24.8491 38.6743L24.662 37.692ZM22.116 38.68L22.6852 39.5022L22.6957 39.4949L22.706 39.4874L22.116 38.68ZM22.192 42.138L21.6959 43.0062L21.7077 43.013L21.7198 43.0195L22.192 42.138ZM24.776 42.936L24.6277 43.9249L24.6312 43.9255L24.776 42.936ZM27.854 43.43L28.0264 42.445L28.0264 42.445L27.854 43.43ZM30.438 44.494L29.838 45.294L29.8473 45.301L29.8568 45.3077L30.438 44.494ZM31.046 46.926L30.2139 47.4807L30.2689 47.5631L30.3389 47.6331L31.046 46.926ZM30.742 46.47L31.5741 45.9153L31.5692 45.908L31.5642 45.9008L30.742 46.47ZM29.716 45.71L29.3352 46.6347L29.3444 46.6384L29.3536 46.642L29.716 45.71ZM27.664 45.216L27.4731 46.1976L27.4885 46.2006L27.5039 46.2031L27.664 45.216ZM25.042 44.684L24.7995 45.6541L24.8169 45.6585L24.8345 45.6622L25.042 44.684ZM22.572 43.924L22.9137 42.9842H22.9137L22.572 43.924ZM20.558 42.632L19.8181 43.3047H19.8181L20.558 42.632ZM20.748 38.68L21.4251 39.4159L20.748 38.68ZM23.256 37.312L22.9707 36.3535L22.9622 36.3561L22.9538 36.3588L23.256 37.312ZM38.684 42.328L37.7089 42.1064L37.0706 44.9149L39.312 43.1062L38.684 42.328ZM49.362 42.708L48.704 41.955L48.7004 41.9582L49.362 42.708ZM27.018 60.226L26.1921 59.6621L26.1915 59.6631L27.018 60.226ZM34.732 47.078L35.6353 47.5071L34.042 46.3542L34.732 47.078ZM24.624 58.402L23.8234 57.8028L23.8228 57.8037L24.624 58.402ZM39.71 61.404L40.2624 62.2376L42.9227 60.4748L39.7321 60.4042L39.71 61.404ZM32.832 61.252L32.8541 60.2522L32.843 60.252H32.832V61.252ZM30.894 63.038L31.3131 62.13L31.2985 62.1233L31.2836 62.117L30.894 63.038ZM41.344 48.028C41.412 49.0257 41.412 49.0257 41.412 49.0257C41.412 49.0257 41.412 49.0257 41.412 49.0257C41.4121 49.0257 41.4121 49.0257 41.4121 49.0257C41.4121 49.0257 41.4121 49.0257 41.4121 49.0257C41.4122 49.0257 41.4123 49.0257 41.4124 49.0257C41.4126 49.0256 41.4127 49.0256 41.4129 49.0256C41.4131 49.0256 41.4131 49.0256 41.4133 49.0256C41.4133 49.0256 41.4136 49.0256 41.4137 49.0256C41.4143 49.0255 41.4168 49.0254 41.4186 49.0252C41.4249 49.0248 41.4193 49.0252 41.4267 49.0247C41.4269 49.0247 41.4271 49.0247 41.4273 49.0246C41.4275 49.0246 41.4278 49.0246 41.428 49.0246C41.4282 49.0246 41.4284 49.0246 41.4286 49.0246C41.4288 49.0245 41.429 49.0245 41.4293 49.0245C41.4297 49.0245 41.4315 49.0244 41.432 49.0243C41.4337 49.0242 41.4362 49.024 41.4381 49.0239C41.4608 49.0224 41.4764 49.0213 41.5165 49.0186C41.5989 49.0129 41.678 49.0075 41.83 48.9972C41.8997 48.9924 41.9781 48.9871 42.0651 48.9812C42.0711 48.9807 42.0756 48.9804 42.0816 48.98C42.083 48.9799 42.0843 48.9798 42.0857 48.9797C42.0871 48.9797 42.0885 48.9796 42.0899 48.9795C42.0926 48.9793 42.0954 48.9791 42.0982 48.9789C42.0997 48.9788 42.1051 48.9784 42.1066 48.9783C42.1081 48.9782 42.1135 48.9779 42.1151 48.9777C42.1181 48.9775 42.1289 48.9768 42.1321 48.9766C42.1352 48.9764 42.1462 48.9756 42.1493 48.9754C42.1551 48.975 42.1609 48.9746 42.1668 48.9742C42.1785 48.9734 42.1903 48.9726 42.2023 48.9718C42.2083 48.9714 42.2143 48.971 42.2204 48.9706C42.2347 48.9696 42.2243 48.9703 42.2386 48.9693C42.2555 48.9682 42.2402 48.9692 42.2571 48.9681C42.2577 48.968 42.2658 48.9675 42.2664 48.9674C42.2692 48.9672 42.2729 48.967 42.2758 48.9668C42.2883 48.9659 42.301 48.9651 42.3137 48.9642C42.3153 48.9641 42.3169 48.964 42.3185 48.9639C42.3202 48.9638 42.3218 48.9637 42.3234 48.9635C42.325 48.9634 42.3266 48.9633 42.3282 48.9632C42.3298 48.9631 42.3314 48.963 42.333 48.9629C42.3413 48.9623 42.3442 48.9621 42.3525 48.9616C42.3777 48.9598 42.347 48.9619 42.3722 48.9602C42.3739 48.9601 42.3755 48.96 42.3772 48.9599C42.3788 48.9598 42.3805 48.9597 42.3821 48.9595C42.3838 48.9594 42.3855 48.9593 42.3871 48.9592C42.3888 48.9591 42.3905 48.959 42.3921 48.9589C42.4036 48.9581 42.4208 48.9569 42.4325 48.9561C42.4597 48.9542 42.4875 48.9524 42.5158 48.9504C42.5189 48.9502 42.5234 48.9499 42.5264 48.9497C42.5282 48.9496 42.53 48.9495 42.5318 48.9493C42.5336 48.9492 42.5353 48.9491 42.5371 48.949C42.5515 48.948 42.5442 48.9485 42.5587 48.9475C42.5659 48.947 42.5731 48.9465 42.5804 48.946C42.584 48.9458 42.5877 48.9455 42.5913 48.9453C42.5932 48.9452 42.595 48.945 42.5968 48.9449C42.5987 48.9448 42.6005 48.9447 42.6023 48.9445C42.6171 48.9435 42.6097 48.944 42.6245 48.943C42.6263 48.9429 42.6282 48.9428 42.6301 48.9426C42.6319 48.9425 42.6338 48.9424 42.6356 48.9423C42.6375 48.9421 42.6394 48.942 42.6412 48.9419C42.6431 48.9417 42.645 48.9416 42.6468 48.9415C42.6487 48.9414 42.6506 48.9412 42.6525 48.9411C42.6543 48.941 42.6562 48.9409 42.6581 48.9407C42.66 48.9406 42.6619 48.9405 42.6637 48.9403C42.6656 48.9402 42.6675 48.9401 42.6694 48.94C42.6887 48.9386 42.6728 48.9397 42.6922 48.9384C42.7963 48.9313 42.9624 48.92 43.084 48.9117L42.948 46.9163C42.3906 46.9543 41.9726 46.9828 41.694 47.0018C41.6829 47.0026 41.692 47.0019 41.681 47.0027C41.6648 47.0038 41.6844 47.0025 41.6683 47.0036C41.6314 47.0061 41.6799 47.0028 41.6434 47.0053C41.5924 47.0087 41.6459 47.0051 41.596 47.0085C41.5849 47.0093 41.5178 47.0138 41.5111 47.0143C41.4556 47.0181 41.528 47.0131 41.4735 47.0168C41.4728 47.0169 41.4721 47.0169 41.4713 47.017C41.4706 47.017 41.4698 47.0171 41.4691 47.0171C41.4683 47.0172 41.4676 47.0173 41.4669 47.0173C41.4661 47.0174 41.4654 47.0174 41.4647 47.0175C41.4639 47.0175 41.4632 47.0175 41.4625 47.0176C41.4618 47.0176 41.461 47.0177 41.4603 47.0177C41.4596 47.0178 41.4589 47.0178 41.4581 47.0179C41.4574 47.0179 41.4567 47.018 41.456 47.018C41.4553 47.0181 41.4546 47.0181 41.4539 47.0182C41.4531 47.0182 41.4524 47.0183 41.4517 47.0183C41.451 47.0184 41.4503 47.0184 41.4496 47.0185C41.4489 47.0185 41.4482 47.0186 41.4475 47.0186C41.4468 47.0187 41.4461 47.0187 41.4454 47.0188C41.4447 47.0188 41.4441 47.0189 41.4434 47.0189C41.4377 47.0193 41.4449 47.0188 41.4393 47.0192C41.3838 47.023 41.4626 47.0176 41.4082 47.0213C41.4056 47.0215 41.3821 47.0231 41.3805 47.0232C41.3773 47.0234 41.3581 47.0247 41.356 47.0249C41.3555 47.0249 41.355 47.0249 41.3546 47.025C41.3541 47.025 41.3536 47.025 41.3532 47.0251C41.3526 47.0251 41.3509 47.0252 41.3504 47.0252C41.3499 47.0253 41.3495 47.0253 41.349 47.0253C41.3485 47.0254 41.3481 47.0254 41.3476 47.0254C41.3475 47.0254 41.3451 47.0256 41.345 47.0256C41.3353 47.0263 41.3441 47.0257 41.3348 47.0263C41.3193 47.0274 41.3132 47.0278 41.3021 47.0285C41.2863 47.0296 41.3054 47.0283 41.2907 47.0293C41.2864 47.0296 41.2925 47.0292 41.2883 47.0295C41.288 47.0295 41.2875 47.0295 41.2872 47.0295C41.287 47.0296 41.2869 47.0296 41.2867 47.0296C41.2865 47.0296 41.2864 47.0296 41.2862 47.0296C41.2815 47.0299 41.2889 47.0294 41.2842 47.0298C41.2841 47.0298 41.2835 47.0298 41.2833 47.0298C41.2833 47.0298 41.2826 47.0299 41.2825 47.0299C41.2823 47.0299 41.2811 47.03 41.281 47.03C41.2809 47.03 41.2807 47.03 41.2806 47.03C41.2805 47.03 41.2804 47.03 41.2803 47.03C41.2794 47.0301 41.2806 47.03 41.2796 47.0301C41.2774 47.0302 41.2796 47.0301 41.2776 47.0302C41.2763 47.0303 41.2782 47.0302 41.2769 47.0303C41.2766 47.0303 41.2769 47.0303 41.2766 47.0303C41.2766 47.0303 41.2765 47.0303 41.2765 47.0303C41.2765 47.0303 41.2764 47.0303 41.2764 47.0303C41.276 47.0303 41.2765 47.0303 41.2762 47.0303C41.2762 47.0303 41.2762 47.0303 41.2761 47.0303C41.2761 47.0303 41.2761 47.0303 41.2761 47.0303C41.2761 47.0303 41.276 47.0303 41.276 47.0303C41.276 47.0303 41.276 47.0303 41.276 47.0303C41.276 47.0303 41.276 47.0303 41.276 47.0303C41.276 47.0303 41.276 47.0303 41.344 48.028ZM43.016 48.914C44.7214 48.914 45.7811 49.2443 46.3841 49.7231L47.6279 48.1569C46.5082 47.2677 44.908 46.914 43.016 46.914V48.914ZM46.4097 49.7427C47.0083 50.1874 47.336 50.82 47.336 51.79H49.336C49.336 50.2773 48.777 49.0099 47.6023 48.1373L46.4097 49.7427ZM47.336 51.79C47.336 52.7157 46.9031 53.9469 45.8359 55.5234L47.4921 56.6446C48.6542 54.9278 49.336 53.2963 49.336 51.79H47.336ZM45.8359 55.5234C44.7894 57.0694 43.4247 58.4864 41.7284 59.7707L42.9356 61.3653C44.786 59.9643 46.3093 58.392 47.4921 56.6446L45.8359 55.5234ZM42.332 61.568H44.498V59.568H42.332V61.568ZM44.498 61.568C45.3831 61.568 46.1 61.5324 46.5695 61.4318L46.1505 59.4762C45.9107 59.5276 45.3862 59.568 44.498 59.568V61.568ZM46.5695 61.4318C46.7437 61.3945 46.8734 61.368 46.9623 61.3514C47.0072 61.3429 47.0352 61.3383 47.0498 61.3361C47.0572 61.335 47.0559 61.3353 47.0484 61.3361C47.0463 61.3363 47.0142 61.34 46.968 61.34V59.34C46.8284 59.34 46.6595 59.3733 46.5937 59.3856C46.4799 59.407 46.3309 59.4375 46.1505 59.4762L46.5695 61.4318ZM46.968 61.34C46.9679 61.34 46.9656 61.34 46.9612 61.3397C46.9568 61.3394 46.9501 61.3387 46.9414 61.3374C46.924 61.3347 46.8974 61.3292 46.8644 61.3174C46.7938 61.2922 46.7099 61.244 46.6359 61.1648C46.4864 61.0046 46.5 60.8576 46.5 60.91H48.5C48.5 60.5824 48.4249 60.1504 48.0981 59.8002C47.7591 59.437 47.3178 59.34 46.968 59.34V61.34ZM46.5 60.91C46.5 60.8942 46.5028 60.8382 46.5354 60.763C46.5701 60.6833 46.6243 60.6149 46.6853 60.5661C46.7416 60.5211 46.784 60.5083 46.7852 60.5079C46.7853 60.5079 46.7574 60.5159 46.6901 60.5192L46.7899 62.5168C47.143 62.4991 47.5751 62.4156 47.9347 62.1279C48.3406 61.8031 48.5 61.3455 48.5 60.91H46.5ZM46.74 60.518C44.7979 60.518 42.9327 60.4928 41.1442 60.4424L41.0878 62.4416C42.8966 62.4926 44.7807 62.518 46.74 62.518V60.518ZM40.5806 60.5974C37.8668 62.3177 35.2633 63.14 32.756 63.14V65.14C35.7207 65.14 38.6905 64.1636 41.6514 62.2866L40.5806 60.5974ZM32.756 63.14C31.575 63.14 30.7576 62.9181 30.2131 62.5732L29.1429 64.2628C30.1184 64.8806 31.353 65.14 32.756 65.14V63.14ZM30.2131 62.5732C29.8881 62.3674 29.7034 62.1974 29.6079 62.0764C29.5185 61.9631 29.538 61.9344 29.538 61.974H27.538C27.538 63.0106 28.3367 63.7522 29.1429 64.2628L30.2131 62.5732ZM29.538 61.974C29.538 61.7848 29.5881 61.7056 29.7125 61.62L28.5795 59.972C27.8932 60.4438 27.538 61.1499 27.538 61.974H29.538ZM29.6893 61.6356C29.8978 61.5006 30.2775 61.378 30.932 61.378V59.378C30.0665 59.378 29.2556 59.534 28.6027 59.9564L29.6893 61.6356ZM30.932 61.378C33.8822 61.378 37.1891 61.441 40.8535 61.5674L40.9225 59.5686C37.2402 59.4416 33.9098 59.378 30.932 59.378V61.378ZM41.5205 61.3425C43.1319 60.0266 44.431 58.5003 45.4076 56.7643L43.6644 55.7837C42.817 57.2903 41.6841 58.6267 40.2555 59.7935L41.5205 61.3425ZM45.4108 56.7585C46.3718 55.0233 46.904 53.3721 46.904 51.828H44.904C44.904 52.9186 44.5242 54.2313 43.6612 55.7895L45.4108 56.7585ZM46.904 51.828C46.904 50.6039 46.5726 49.5071 45.7405 48.7312C44.9216 47.9675 43.7868 47.674 42.522 47.674V49.674C43.5119 49.674 44.068 49.9062 44.3765 50.1938C44.6718 50.4692 44.904 50.9494 44.904 51.828H46.904ZM42.522 47.674C41.5299 47.674 40.5114 47.83 39.4699 48.1314L40.0261 50.0526C40.9099 49.7967 41.7407 49.674 42.522 49.674V47.674ZM39.463 48.1335C38.9864 48.2752 38.5909 48.4011 38.2825 48.5108C38.0018 48.6106 37.7128 48.724 37.508 48.852L38.568 50.548C38.5659 50.5493 38.6632 50.4981 38.9525 50.3952C39.2141 50.3022 39.5723 50.1875 40.033 50.0505L39.463 48.1335ZM37.5419 48.8318C37.4666 48.8748 37.4265 48.8943 37.4134 48.9002C37.4067 48.9031 37.4215 48.896 37.4518 48.8867C37.4677 48.8818 37.4949 48.8741 37.5309 48.8673C37.5651 48.8608 37.6227 48.852 37.696 48.852V50.852C37.9573 50.852 38.1754 50.7501 38.2256 50.7278C38.3265 50.683 38.4321 50.6265 38.5341 50.5682L37.5419 48.8318ZM37.696 48.852C37.768 48.852 37.8783 48.864 38.0024 48.9192C38.1323 48.9769 38.2433 49.067 38.325 49.176C38.4025 49.2793 38.437 49.3769 38.4524 49.4385C38.4675 49.499 38.468 49.5394 38.468 49.548H36.468C36.468 49.7455 36.5 50.0759 36.725 50.376C36.9906 50.7302 37.376 50.852 37.696 50.852V48.852ZM38.468 49.548C38.468 49.7401 38.3975 49.8711 38.3618 49.9246C38.3284 49.9746 38.3092 49.983 38.3433 49.9554C38.374 49.9307 38.4307 49.8906 38.5235 49.8371C38.6148 49.7844 38.7309 49.7245 38.8751 49.658L38.0369 47.842C37.6778 48.0078 37.3451 48.1908 37.0867 48.3996C36.8743 48.5711 36.468 48.9535 36.468 49.548H38.468ZM38.8905 49.6507C41.8609 48.2176 44.754 46.3213 47.5709 43.9696L46.2891 42.4344C43.5833 44.6933 40.8271 46.4957 38.0215 47.8493L38.8905 49.6507ZM47.575 43.9662C48.9749 42.7846 50.0608 41.7438 50.8052 40.8491C51.1776 40.4015 51.4833 39.9684 51.6998 39.5533C51.912 39.1464 52.072 38.6935 52.072 38.224H50.072C50.072 38.2485 50.0594 38.3735 49.9265 38.6285C49.7978 38.8752 49.5857 39.1878 49.2678 39.5699C48.6316 40.3345 47.6464 41.2887 46.285 42.4378L47.575 43.9662ZM52.072 38.224C52.072 37.6888 51.8371 37.185 51.3468 36.8698C50.9321 36.6033 50.4377 36.54 50.008 36.54V38.54C50.1349 38.54 50.2169 38.5505 50.264 38.5606C50.3118 38.5708 50.3025 38.5761 50.2652 38.5522C50.2212 38.5239 50.1613 38.469 50.1177 38.3851C50.0759 38.3044 50.072 38.2409 50.072 38.224H52.072ZM49.9992 36.54C48.3233 36.5547 46.4421 37.1843 44.3891 38.3059C42.3252 39.4335 40.0157 41.0982 37.4645 43.2777L38.7635 44.7983C41.2537 42.6711 43.4472 41.0995 45.3479 40.0611C47.2596 39.0167 48.8047 38.5506 50.0168 38.54L49.9992 36.54ZM37.1818 43.676C36.199 46.2067 34.5609 49.3541 32.2456 53.1292L33.9504 54.1748C36.2964 50.3499 38.0023 47.088 39.0462 44.4L37.1818 43.676ZM32.243 53.1333C29.9614 56.8942 27.5723 60.2452 25.0771 63.1895L26.6029 64.4825C29.1744 61.4482 31.6239 58.0098 33.953 54.1707L32.243 53.1333ZM25.0744 63.1927C23.8273 64.6768 22.7706 65.7512 21.9004 66.4461C20.9909 67.1726 20.4392 67.358 20.178 67.358V69.358C21.1581 69.358 22.1708 68.7898 23.1486 68.0089C24.1658 67.1965 25.3194 66.0099 26.6056 64.4793L25.0744 63.1927ZM20.178 67.358C20.0712 67.358 20.0194 67.3439 20.0049 67.3389C19.9956 67.3357 20.0162 67.3418 20.0416 67.3681C20.0663 67.3936 20.0678 67.4094 20.061 67.3884C20.0527 67.3628 20.038 67.2988 20.038 67.18H18.038C18.038 67.7187 18.168 68.308 18.6044 68.7589C19.0467 69.216 19.6354 69.358 20.178 69.358V67.358ZM20.038 67.18C20.038 66.5392 20.3597 65.472 21.1947 63.8955C22.0111 62.3541 23.2525 60.4445 24.9353 58.1589L23.3247 56.9731C21.6128 59.2982 20.3082 61.2962 19.4273 62.9595C18.5649 64.5877 18.038 66.0222 18.038 67.18H20.038ZM24.9332 58.1618C28.3131 53.6051 32.1314 49.4111 36.389 45.5793L35.051 44.0927C30.6953 48.0129 26.7869 52.3055 23.3268 56.9702L24.9332 58.1618ZM36.6449 45.2161C37.4042 43.3685 37.86 41.8617 37.86 40.808H35.86C35.86 41.4263 35.5558 42.6048 34.7951 44.4559L36.6449 45.2161ZM37.86 40.808C37.86 39.7977 37.6219 38.8683 37.0169 38.1499L35.4871 39.4381C35.6928 39.6824 35.86 40.0956 35.86 40.808H37.86ZM37.0329 38.1693C36.4688 37.4642 35.6763 37.0021 34.7448 36.7317L34.1872 38.6523C34.8264 38.8379 35.2246 39.1105 35.4711 39.4187L37.0329 38.1693ZM34.7224 36.7254C33.3907 36.3721 31.9866 36.198 30.514 36.198V38.198C31.8281 38.198 33.0587 38.3532 34.2096 38.6586L34.7224 36.7254ZM30.514 36.198C29.1353 36.198 28.0434 36.236 27.2571 36.3173L27.4629 38.3067C28.146 38.236 29.1567 38.198 30.514 38.198V36.198ZM27.2912 36.3144C26.5031 36.3687 25.5616 36.5027 24.4749 36.7097L24.8491 38.6743C25.8904 38.476 26.7476 38.3566 27.4288 38.3096L27.2912 36.3144ZM24.4937 36.7063C23.3455 36.9023 22.3405 37.2774 21.526 37.8726L22.706 39.4874C23.2088 39.12 23.9011 38.8364 24.8303 38.6777L24.4937 36.7063ZM21.5468 37.8578C20.647 38.4808 20.128 39.3698 20.128 40.466H22.128C22.128 40.0929 22.2677 39.7912 22.6852 39.5022L21.5468 37.8578ZM20.128 40.466C20.128 41.595 20.7316 42.4552 21.6959 43.0062L22.6881 41.2698C22.2337 41.0101 22.128 40.7557 22.128 40.466H20.128ZM21.7198 43.0195C22.5535 43.4661 23.5305 43.7604 24.6277 43.9249L24.9243 41.9471C23.9948 41.8076 23.2492 41.5699 22.6642 41.2565L21.7198 43.0195ZM24.6312 43.9255C25.6608 44.0761 26.6776 44.2393 27.6816 44.415L28.0264 42.445C27.0037 42.266 25.9685 42.0999 24.9208 41.9465L24.6312 43.9255ZM27.6816 44.415C28.5647 44.5696 29.2734 44.8706 29.838 45.294L31.038 43.694C30.1839 43.0534 29.17 42.6451 28.0264 42.445L27.6816 44.415ZM29.8568 45.3077C30.2809 45.6107 30.502 46.0171 30.502 46.66H32.502C32.502 45.4282 32.0137 44.3906 31.0192 43.6803L29.8568 45.3077ZM30.502 46.66C30.502 46.7356 30.4873 46.6434 30.5601 46.4978C30.6036 46.4108 30.6884 46.2855 30.8404 46.1842C30.9987 46.0787 31.1687 46.04 31.312 46.04V48.04C31.5187 48.04 31.7441 47.9855 31.9498 47.8483C32.1493 47.7153 32.2738 47.5425 32.3489 47.3922C32.4851 47.1199 32.502 46.8377 32.502 46.66H30.502ZM31.312 46.04C31.3898 46.04 31.477 46.0553 31.5634 46.0924C31.6486 46.1289 31.7114 46.1772 31.7531 46.2189L30.3389 47.6331C30.5898 47.884 30.9281 48.04 31.312 48.04V46.04ZM31.8781 46.3713C31.8274 46.2953 31.7261 46.1433 31.5741 45.9153L29.91 47.0247C30.062 47.2527 30.1633 47.4047 30.2139 47.4807L31.8781 46.3713ZM31.5642 45.9008C31.1996 45.3741 30.6788 45.0115 30.0784 44.778L29.3536 46.642C29.6652 46.7632 29.8284 46.9072 29.9198 47.0392L31.5642 45.9008ZM30.0968 44.7853C29.5546 44.5621 28.776 44.3833 27.8241 44.2289L27.5039 46.2031C28.4267 46.3527 29.0161 46.5033 29.3352 46.6347L30.0968 44.7853ZM27.8549 44.2344C26.948 44.058 26.0795 43.8818 25.2495 43.7058L24.8345 45.6622C25.6765 45.8408 26.556 46.0193 27.4731 46.1976L27.8549 44.2344ZM25.2845 43.7139C24.5095 43.5201 23.7193 43.2771 22.9137 42.9842L22.2303 44.8638C23.0967 45.1789 23.9532 45.4426 24.7995 45.6541L25.2845 43.7139ZM22.9137 42.9842C22.2026 42.7256 21.6774 42.3767 21.2979 41.9593L19.8181 43.3047C20.452 44.002 21.2694 44.5144 22.2303 44.8638L22.9137 42.9842ZM21.2979 41.9593C20.9539 41.5809 20.798 41.1731 20.798 40.694H18.798C18.798 41.6843 19.1487 42.5684 19.8181 43.3047L21.2979 41.9593ZM20.798 40.694C20.798 40.2521 20.9675 39.8369 21.4251 39.4159L20.0709 37.9441C19.2619 38.6884 18.798 39.6159 18.798 40.694H20.798ZM21.4251 39.4159C21.9262 38.9549 22.623 38.5618 23.5582 38.2652L22.9538 36.3588C21.8117 36.7209 20.8365 37.2398 20.0709 37.9441L21.4251 39.4159ZM23.5413 38.2704C25.5732 37.6657 27.6935 37.362 29.906 37.362V35.362C27.5078 35.362 25.1948 35.6916 22.9707 36.3535L23.5413 38.2704ZM29.906 37.362C32.8403 37.362 34.8873 37.7529 36.1669 38.4252C36.7919 38.7536 37.207 39.1351 37.4691 39.5482C37.7287 39.9574 37.874 40.4538 37.874 41.074H39.874C39.874 40.1235 39.6456 39.2456 39.1579 38.4768C38.6727 37.7119 37.9668 37.1117 37.0971 36.6548C35.3873 35.7564 32.9503 35.362 29.906 35.362V37.362ZM37.874 41.074C37.874 41.2352 37.8325 41.5625 37.7089 42.1064L39.6591 42.5496C39.7889 41.9788 39.874 41.4701 39.874 41.074H37.874ZM39.312 43.1062C44.4082 38.994 48.3266 37.134 51.148 37.134V35.134C47.5854 35.134 43.1945 37.4034 38.056 41.5498L39.312 43.1062ZM51.148 37.134C51.7887 37.134 52.102 37.2371 52.225 37.3118C52.2717 37.3402 52.2724 37.3528 52.2664 37.342C52.2614 37.3329 52.276 37.3504 52.276 37.426H54.276C54.276 36.6621 53.9299 36.0071 53.263 35.6022C52.6767 35.2463 51.9259 35.134 51.148 35.134V37.134ZM52.276 37.426C52.276 37.7222 52.1053 38.2572 51.494 39.0821C50.9016 39.8816 49.982 40.8383 48.704 41.955L50.02 43.461C51.3514 42.2977 52.3887 41.234 53.101 40.2729C53.7944 39.3371 54.276 38.3712 54.276 37.426H52.276ZM48.7004 41.9582C46.18 44.182 43.5885 45.8982 40.9271 47.1191L41.7609 48.9369C44.6222 47.6244 47.376 45.794 50.0236 43.4578L48.7004 41.9582ZM21.128 68.256C21.4672 68.256 21.7552 68.128 21.9512 68.0178C22.1617 67.8994 22.3678 67.743 22.5651 67.5716C22.9604 67.2282 23.4135 66.7429 23.918 66.1407C24.9319 64.9307 26.2427 63.1408 27.8445 60.7889L26.1915 59.6631C24.6013 61.9979 23.3345 63.723 22.385 64.8563C21.9078 65.4258 21.5328 65.8192 21.2536 66.0616C21.1137 66.1832 21.0209 66.2464 20.971 66.2745C20.9065 66.3107 20.9724 66.256 21.128 66.256V68.256ZM27.8439 60.7899C31.083 56.0459 33.6826 51.6179 35.6353 47.5071L33.8287 46.6489C31.9307 50.6448 29.3877 54.9821 26.1921 59.6621L27.8439 60.7899ZM34.042 46.3542C30.2045 50.0126 26.7976 53.8286 23.8234 57.8028L25.4246 59.0012C28.3277 55.122 31.6595 51.3887 35.422 47.8018L34.042 46.3542ZM23.8228 57.8037C22.3527 59.7723 21.2295 61.4547 20.4694 62.8427C19.7326 64.1882 19.254 65.4006 19.254 66.382H21.254C21.254 65.9447 21.5038 65.1178 22.2236 63.8033C22.9202 62.5313 23.982 60.933 25.4252 59.0003L23.8228 57.8037ZM19.254 66.382C19.254 66.8275 19.366 67.3453 19.7654 67.7446C20.1647 68.144 20.6825 68.256 21.128 68.256V66.256C21.0627 66.256 21.0462 66.2475 21.0619 66.2527C21.0823 66.2595 21.1303 66.2811 21.1796 66.3304C21.2289 66.3797 21.2505 66.4277 21.2573 66.4481C21.2625 66.4638 21.254 66.4473 21.254 66.382H19.254ZM39.7321 60.4042L32.8541 60.2522L32.8099 62.2518L39.6879 62.4038L39.7321 60.4042ZM32.832 60.252C31.8313 60.252 30.9818 60.324 30.3513 60.5123C30.0367 60.6063 29.6972 60.7518 29.4215 60.9989C29.1171 61.2717 28.906 61.6592 28.906 62.126H30.906C30.906 62.3015 30.8169 62.434 30.7562 62.4884C30.7244 62.5169 30.7507 62.4804 30.9237 62.4287C31.2686 62.3257 31.8821 62.252 32.832 62.252V60.252ZM28.906 62.126C28.906 62.6595 29.1818 63.0655 29.4747 63.3358C29.7593 63.5985 30.1243 63.7982 30.5044 63.959L31.2836 62.117C31.1502 62.0606 31.0472 62.0086 30.9697 61.9629C30.8913 61.9166 30.8494 61.8829 30.8313 61.8662C30.8131 61.8494 30.8312 61.8611 30.855 61.9069C30.8815 61.958 30.906 62.0345 30.906 62.126H28.906ZM30.4749 63.946C31.2873 64.3209 32.1947 64.494 33.174 64.494V62.494C32.4306 62.494 31.818 62.3631 31.3131 62.13L30.4749 63.946ZM33.174 64.494C35.648 64.494 38.0161 63.7261 40.2624 62.2376L39.1576 60.5704C37.1986 61.8686 35.2093 62.494 33.174 62.494V64.494ZM54.4291 55.058L53.6512 54.4295L53.6487 54.4327L54.4291 55.058ZM64.0811 45.178L64.7178 45.9491L64.889 45.8077L64.9843 45.6072L64.0811 45.178ZM57.6971 39.06L57.1061 38.2533L57.1016 38.2566L57.6971 39.06ZM52.2251 44.418L53.0188 45.0262L53.0226 45.0213L52.2251 44.418ZM55.7591 48.18L55.1082 47.4207L55.1023 47.4259L55.7591 48.18ZM59.3311 44.19L58.4778 43.6685L58.4765 43.6706L59.3311 44.19ZM60.1291 44.228L59.3482 43.6033L59.3211 43.6372L59.297 43.6733L60.1291 44.228ZM56.0251 48.674L56.6907 49.4203L56.0251 48.674ZM50.1731 45.634L51.001 46.1948L50.1731 45.634ZM54.0491 41.112L54.7378 41.837L54.7381 41.8367L54.0491 41.112ZM59.2171 37.35L59.6967 38.2275L59.7007 38.2252L59.2171 37.35ZM65.9051 43.772L64.9842 43.382L63.5607 46.7431L66.4985 44.5768L65.9051 43.772ZM70.7691 48.066L71.621 48.5897L71.6231 48.5862L70.7691 48.066ZM65.6771 55.552L64.8814 54.9462L64.8781 54.9506L65.6771 55.552ZM63.1311 58.934L62.3321 58.3326L62.1311 58.5997V58.934H63.1311ZM63.1691 59.01V60.01H63.4784L63.7337 59.8353L63.1691 59.01ZM68.2231 54.678L67.5473 53.9408L67.5435 53.9444L68.2231 54.678ZM74.9111 48.902L74.2911 48.1173L74.2864 48.1211L74.9111 48.902ZM78.0651 51.258L78.8651 51.858L78.0651 51.258ZM73.5051 57.49L72.6913 56.9088L73.5051 57.49ZM75.3291 61.936L75.856 62.7859L75.8621 62.7821L75.8681 62.7783L75.3291 61.936ZM77.8371 60.986L77.1881 60.2252L77.1825 60.23L77.1769 60.2348L77.8371 60.986ZM74.6451 63.076L74.1909 62.1851L74.1837 62.1888L74.6451 63.076ZM70.8071 58.896L69.9482 58.3837L69.9416 58.395L70.8071 58.896ZM73.6191 54.868L72.8526 54.2255L72.8444 54.2356L73.6191 54.868ZM78.4451 48.028L79.4041 48.3113L79.4451 48.1726V48.028H78.4451ZM65.5251 57.946L66.2197 58.6654L65.5251 57.946ZM61.3831 62.05L62.1202 62.7257H62.1202L61.3831 62.05ZM60.5471 62.886L61.218 63.6275L61.2197 63.6259L60.5471 62.886ZM59.4071 63.57L60.1142 62.8629L59.9829 62.7316L59.8132 62.6562L59.4071 63.57ZM61.4971 59.048L60.7189 58.4199L60.7162 58.4233L61.4971 59.048ZM68.7931 48.94L67.9488 48.404L67.9458 48.4088L68.7931 48.94ZM65.2211 45.292L64.5787 44.5256L64.4154 44.6625L64.3221 44.854L65.2211 45.292ZM57.3171 57.414L58.0942 58.0433L57.3171 57.414ZM56.4051 57.452L57.1966 58.0631L57.1988 58.0603L56.4051 57.452ZM63.1311 47.116L64.0134 47.5866L62.4536 46.3805L63.1311 47.116ZM54.8851 55.97L54.106 55.3431L54.1054 55.3438L54.8851 55.97ZM50.5911 62.608C50.4919 62.608 50.6012 62.5839 50.7282 62.7109C50.8552 62.8379 50.8311 62.9472 50.8311 62.848H48.8311C48.8311 63.2555 48.9336 63.7448 49.314 64.1251C49.6943 64.5055 50.1836 64.608 50.5911 64.608V62.608ZM50.8311 62.848C50.8311 62.4575 51.0811 61.6715 51.8417 60.3828C52.5738 59.1426 53.6906 57.5788 55.2094 55.6833L53.6487 54.4327C52.1022 56.3626 50.92 58.0098 50.1194 59.3662C49.3473 60.6742 48.8311 61.8705 48.8311 62.848H50.8311ZM55.2069 55.6865C58.2609 51.9065 61.4318 48.6625 64.7178 45.9491L63.4443 44.4069C60.0423 47.2162 56.7785 50.5589 53.6512 54.4295L55.2069 55.6865ZM64.9843 45.6072C66.2128 43.0221 66.9051 40.8644 66.9051 39.212H64.9051C64.9051 40.3969 64.3813 42.2165 63.1779 44.7488L64.9843 45.6072ZM66.9051 39.212C66.9051 38.2092 66.6537 37.2734 65.9757 36.5954C65.2977 35.9174 64.3619 35.666 63.3591 35.666V37.666C64.0536 37.666 64.3908 37.839 64.5615 38.0096C64.7321 38.1803 64.9051 38.5175 64.9051 39.212H66.9051ZM63.3591 35.666C61.4481 35.666 59.3492 36.6101 57.1061 38.2533L58.288 39.8667C60.4023 38.3179 62.0781 37.666 63.3591 37.666V35.666ZM57.1016 38.2566C54.878 39.9047 52.9842 41.7568 51.4275 43.8147L53.0226 45.0213C54.4553 43.1272 56.2095 41.4073 58.2925 39.8634L57.1016 38.2566ZM51.4313 43.8098C50.6595 44.8171 50.0573 45.746 49.6447 46.5922C49.2365 47.4295 48.9831 48.2476 48.9831 49.016H50.9831C50.9831 48.6697 51.1033 48.1642 51.4424 47.4688C51.7771 46.7823 52.296 45.9696 53.0188 45.0262L51.4313 43.8098ZM48.9831 49.016C48.9831 49.6164 49.1634 50.2372 49.6804 50.6844C50.1697 51.1075 50.799 51.232 51.3891 51.232V49.232C51.0418 49.232 50.9681 49.1538 50.9887 49.1716C51.0021 49.1832 51.0067 49.1954 51.004 49.1884C50.999 49.1753 50.9831 49.1246 50.9831 49.016H48.9831ZM51.3891 51.232C53.0756 51.232 54.759 50.3771 56.4158 48.9341L55.1023 47.4259C53.6178 48.7189 52.3879 49.232 51.3891 49.232V51.232ZM56.4099 48.9393C58.0572 47.5273 59.3287 46.1192 60.1856 44.7094L58.4765 43.6706C57.7628 44.8448 56.653 46.0967 55.1083 47.4207L56.4099 48.9393ZM60.1843 44.7114C60.2422 44.6167 60.2922 44.5425 60.3341 44.486C60.3768 44.4284 60.405 44.3973 60.4182 44.3841C60.4336 44.3687 60.4156 44.3906 60.3628 44.4203C60.309 44.4506 60.1878 44.506 60.0151 44.506V42.506C59.5138 42.506 59.166 42.8078 59.004 42.9699C58.8096 43.1643 58.6352 43.411 58.4778 43.6685L60.1843 44.7114ZM60.0151 44.506C59.9496 44.506 59.7168 44.489 59.5075 44.2796C59.2981 44.0703 59.2811 43.8375 59.2811 43.772H61.2811C61.2811 43.5292 61.2197 43.1634 60.9217 42.8654C60.6237 42.5674 60.2579 42.506 60.0151 42.506V44.506ZM59.2811 43.772C59.2811 43.7646 59.2823 43.739 59.2944 43.7028C59.3068 43.6654 59.3261 43.6309 59.3482 43.6033L60.9099 44.8527C61.1666 44.5319 61.2811 44.1538 61.2811 43.772H59.2811ZM59.297 43.6733C58.5026 44.8649 57.2046 46.2821 55.3594 47.9277L56.6907 49.4203C58.5949 47.7219 60.0328 46.1751 60.9611 44.7827L59.297 43.6733ZM55.3594 47.9277C53.5602 49.5324 52.0812 50.182 50.8951 50.182V52.182C52.7996 52.182 54.7406 51.1596 56.6907 49.4203L55.3594 47.9277ZM50.8951 50.182C50.216 50.182 49.8882 50.0515 49.7502 49.9498C49.6691 49.89 49.5771 49.7917 49.5771 49.472H47.5771C47.5771 50.2923 47.8713 51.049 48.5629 51.5592C49.1976 52.0274 50.0288 52.182 50.8951 52.182V50.182ZM49.5771 49.472C49.5771 48.7971 49.962 47.7286 51.001 46.1948L49.3451 45.0732C48.2561 46.6808 47.5771 48.1709 47.5771 49.472H49.5771ZM51.001 46.1948C52.0207 44.6896 53.2646 43.2366 54.7378 41.837L53.3603 40.387C51.7935 41.8754 50.4535 43.4371 49.3451 45.0732L51.001 46.1948ZM54.7381 41.8367C56.2196 40.4281 57.8717 39.2251 59.6967 38.2274L58.7374 36.4726C56.7625 37.5522 54.9692 38.8573 53.36 40.3873L54.7381 41.8367ZM59.7007 38.2252C61.5429 37.2072 63.0828 36.754 64.3471 36.754V34.754C62.622 34.754 60.7419 35.3648 58.7334 36.4748L59.7007 38.2252ZM64.3471 36.754C65.1715 36.754 65.6055 36.9572 65.8391 37.1877C66.0702 37.4159 66.2731 37.8368 66.2731 38.642H68.2731C68.2731 37.5219 67.9882 36.4988 67.244 35.7643C66.5023 35.0321 65.4733 34.754 64.3471 34.754V36.754ZM66.2731 38.642C66.2731 39.7049 65.8807 41.2654 64.9842 43.382L66.8259 44.162C67.7534 41.972 68.2731 40.1125 68.2731 38.642H66.2731ZM66.4985 44.5768C68.9835 42.7445 70.7714 41.998 71.9471 41.998V39.998C70.0827 39.998 67.8426 41.1008 65.3116 42.9671L66.4985 44.5768ZM71.9471 41.998C72.2347 41.998 72.2703 42.0712 72.2471 42.0467C72.2335 42.0324 72.3151 42.1017 72.3151 42.442H74.3151C74.3151 41.8196 74.1686 41.167 73.699 40.6713C73.2198 40.1654 72.5714 39.998 71.9471 39.998V41.998ZM72.3151 42.442C72.3151 42.694 72.1851 43.2353 71.7676 44.1576C71.3668 45.0429 70.7532 46.1696 69.915 47.5458L71.6231 48.5862C72.4822 47.1757 73.1417 45.9717 73.5896 44.9824C74.0207 44.03 74.3151 43.1527 74.3151 42.442H72.3151ZM69.9171 47.5423C68.2346 50.2797 66.5558 52.747 64.8814 54.9462L66.4727 56.1578C68.193 53.8983 69.9089 51.375 71.621 48.5897L69.9171 47.5423ZM64.8781 54.9506L62.3321 58.3326L63.93 59.5354L66.476 56.1534L64.8781 54.9506ZM62.1311 58.934C62.1311 59.0104 62.1353 59.2166 62.2461 59.4382C62.3086 59.5632 62.4173 59.717 62.5977 59.8373C62.7845 59.9618 62.9877 60.01 63.1691 60.01V58.01C63.3377 58.01 63.5299 58.055 63.7071 58.1732C63.8781 58.2872 63.9788 58.4315 64.035 58.5438C64.1331 58.7401 64.1311 58.9083 64.1311 58.934H62.1311ZM63.7337 59.8353C64.7664 59.1288 66.5025 57.6349 68.9026 55.4116L67.5435 53.9444C65.1303 56.1797 63.4971 57.5739 62.6044 58.1847L63.7337 59.8353ZM68.8988 55.4152C71.3185 53.1971 73.5305 51.2871 75.5358 49.6829L74.2864 48.1211C72.2383 49.7596 69.9917 51.7002 67.5473 53.9408L68.8988 55.4152ZM75.531 49.6866C76.5316 48.8961 77.3728 48.3272 78.0606 47.9604C78.7689 47.5826 79.2215 47.47 79.4711 47.47V45.47C78.7326 45.47 77.9312 45.7627 77.1195 46.1956C76.2873 46.6395 75.3425 47.2866 74.2911 48.1174L75.531 49.6866ZM79.4711 47.47C79.5364 47.47 79.5528 47.4785 79.5372 47.4733C79.5168 47.4665 79.4688 47.4449 79.4195 47.3956C79.3701 47.3463 79.3486 47.2983 79.3418 47.2779C79.3366 47.2622 79.3451 47.2787 79.3451 47.344H81.3451C81.3451 46.8985 81.233 46.3807 80.8337 45.9814C80.4343 45.582 79.9165 45.47 79.4711 45.47V47.47ZM79.3451 47.344C79.3451 47.3 79.3524 47.3504 79.2749 47.5428C79.2043 47.7182 79.0871 47.9538 78.911 48.2561C78.5591 48.8602 78.0151 49.6579 77.2651 50.658L78.8651 51.858C79.635 50.8314 80.231 49.9634 80.6391 49.2628C80.843 48.9129 81.0108 48.5864 81.1302 48.2899C81.2427 48.0105 81.3451 47.6794 81.3451 47.344H79.3451ZM77.2651 50.658C75.7403 52.6911 74.2157 54.7747 72.6913 56.9088L74.3188 58.0712C75.8344 55.9493 77.3499 53.8783 78.8651 51.858L77.2651 50.658ZM72.6913 56.9088C71.9176 57.992 71.3175 58.9346 70.9068 59.7286C70.5146 60.4868 70.2251 61.2384 70.2251 61.898H72.2251C72.2251 61.747 72.3155 61.3585 72.6833 60.6474C73.0326 59.9721 73.5726 59.1159 74.3188 58.0712L72.6913 56.9088ZM70.2251 61.898C70.2251 62.4199 70.3316 62.9978 70.7173 63.4549C71.1304 63.9445 71.7062 64.114 72.2511 64.114V62.114C72.1767 62.114 72.1565 62.1028 72.1696 62.1079C72.1888 62.1155 72.2203 62.1349 72.2459 62.1651C72.2683 62.1917 72.2632 62.1997 72.2518 62.1593C72.2397 62.1162 72.2251 62.0336 72.2251 61.898H70.2251ZM72.2511 64.114C73.3256 64.114 74.5507 63.5952 75.856 62.7859L74.8021 61.0861C73.5741 61.8475 72.7472 62.114 72.2511 62.114V64.114ZM75.8681 62.7783C77.1418 61.9631 78.0974 61.2744 78.6778 60.723L77.3003 59.273C76.8674 59.6843 76.0497 60.2875 74.79 61.0937L75.8681 62.7783ZM78.6778 60.723C78.9212 60.4918 79.0963 60.3403 79.2116 60.2527C79.2706 60.2079 79.2927 60.1961 79.2855 60.2C79.2812 60.2023 79.2543 60.2169 79.2092 60.2325C79.1693 60.2462 79.0725 60.276 78.9391 60.276V58.276C78.6445 58.276 78.4151 58.3968 78.3313 58.4423C78.2134 58.5063 78.1009 58.5848 78.0015 58.6603C77.8001 58.8134 77.5636 59.0229 77.3003 59.273L78.6778 60.723ZM78.9391 60.276C78.8956 60.276 78.6779 60.2717 78.4569 60.0949C78.1933 59.884 78.1291 59.598 78.1291 59.428H80.1291C80.1291 59.1566 80.0332 58.7947 79.7063 58.5331C79.4219 58.3057 79.1092 58.276 78.9391 58.276V60.276ZM78.1291 59.428C78.1291 59.2795 78.1773 59.2041 78.1622 59.2329C78.1519 59.2526 78.1174 59.3094 78.0363 59.4072C77.874 59.6029 77.6001 59.8737 77.1881 60.2252L78.486 61.7468C78.9353 61.3636 79.3075 61.0074 79.5758 60.6838C79.7101 60.5219 79.8371 60.346 79.9344 60.1599C80.027 59.9828 80.1291 59.7285 80.1291 59.428H78.1291ZM77.1769 60.2348C76.4191 60.9009 75.4297 61.5535 74.1909 62.1851L75.0993 63.9669C76.4444 63.2811 77.5831 62.5405 78.4972 61.7372L77.1769 60.2348ZM74.1837 62.1888C72.9868 62.8112 72.0627 63.064 71.3771 63.064V65.064C72.5154 65.064 73.77 64.6582 75.1064 63.9632L74.1837 62.1888ZM71.3771 63.064C70.8787 63.064 70.6904 62.9586 70.6397 62.9174C70.6287 62.9084 70.5531 62.8606 70.5531 62.582H68.5531C68.5531 63.2914 68.7815 63.9846 69.3785 64.4696C69.9357 64.9224 70.6595 65.064 71.3771 65.064V63.064ZM70.5531 62.582C70.5531 61.824 70.8738 60.7766 71.6725 59.397L69.9416 58.395C69.0683 59.9034 68.5531 61.3134 68.5531 62.582H70.5531ZM71.6659 59.4083C72.5034 58.0043 73.4128 56.702 74.3937 55.5004L72.8444 54.2356C71.7986 55.5167 70.8334 56.8997 69.9482 58.3837L71.6659 59.4083ZM74.3854 55.5104C75.8379 53.7776 76.9817 52.3225 77.8087 51.1505C78.6123 50.0115 79.1878 49.0433 79.4041 48.3113L77.486 47.7447C77.373 48.1273 76.9795 48.8565 76.1745 49.9975C75.3927 51.1055 74.2882 52.5131 72.8527 54.2256L74.3854 55.5104ZM79.4451 48.028C79.4451 47.7568 79.3855 47.3668 79.09 47.0418C78.7781 46.6987 78.3717 46.61 78.0651 46.61V48.61C78.0117 48.61 77.7954 48.5909 77.6101 48.3872C77.5272 48.2959 77.4847 48.2024 77.4643 48.1351C77.445 48.0716 77.4451 48.0309 77.4451 48.028H79.4451ZM78.0651 46.61C77.82 46.61 77.5972 46.6747 77.4308 46.7362C77.2532 46.8019 77.0706 46.8906 76.889 46.9907C76.5258 47.1908 76.0979 47.4748 75.6136 47.8282C74.6417 48.5374 73.3625 49.5853 71.7843 50.9599L73.0978 52.4681C74.6609 51.1067 75.8897 50.1026 76.7925 49.4438C77.2456 49.1132 77.5966 48.8842 77.8542 48.7423C77.9828 48.6714 78.0711 48.6318 78.1246 48.612C78.1894 48.5881 78.1581 48.61 78.0651 48.61V46.61ZM71.7843 50.9599C68.6404 53.6981 66.3191 55.7893 64.8305 57.2266L66.2197 58.6654C67.6697 57.2654 69.9591 55.2018 73.0978 52.4681L71.7843 50.9599ZM64.8305 57.2266C63.3619 58.6445 62.3678 59.6131 61.854 60.1269L63.2682 61.5411C63.7677 61.0416 64.7495 60.0848 66.2197 58.6654L64.8305 57.2266ZM61.854 60.1269C61.3433 60.6375 60.9389 61.0546 60.6459 61.3743L62.1202 62.7257C62.3845 62.4374 62.7655 62.0438 63.2682 61.5411L61.854 60.1269ZM60.6459 61.3743C60.3858 61.658 60.1286 61.915 59.8744 62.1461L61.2197 63.6259C61.5229 63.3504 61.8229 63.05 62.1202 62.7257L60.6459 61.3743ZM59.8761 62.1445C59.625 62.3717 59.4425 62.5173 59.3206 62.6C59.2594 62.6415 59.2336 62.6534 59.2371 62.6518C59.2401 62.6504 59.2606 62.6412 59.2959 62.6316C59.3299 62.6224 59.3952 62.608 59.4831 62.608V64.608C59.7325 64.608 59.9388 64.5295 60.0615 64.474C60.198 64.4122 60.3274 64.3338 60.4436 64.255C60.6763 64.097 60.9372 63.8816 61.218 63.6275L59.8761 62.1445ZM59.4831 62.608C59.8165 62.608 60.0305 62.7792 60.1142 62.8629L58.7 64.2771C58.8343 64.4114 59.099 64.608 59.4831 64.608V62.608ZM59.8132 62.6562C59.8442 62.67 59.9251 62.7166 59.9917 62.8202C60.0577 62.9229 60.0651 63.012 60.0651 63.038H58.0651C58.0651 63.3173 58.1294 63.6218 58.3094 63.9018C58.49 64.1827 58.7419 64.3687 59.0009 64.4838L59.8132 62.6562ZM60.0651 63.038C60.0651 63.0701 60.0607 63.0093 60.1414 62.814C60.216 62.6332 60.3401 62.3925 60.5269 62.086C60.9005 61.4731 61.4788 60.6716 62.2779 59.6727L60.7162 58.4233C59.894 59.4511 59.2563 60.3279 58.8192 61.045C58.6007 61.4035 58.4207 61.7408 58.2928 62.0507C58.1707 62.3463 58.0651 62.6892 58.0651 63.038H60.0651ZM62.2752 59.6761C65.1578 56.1047 67.6141 52.7029 69.6403 49.4712L67.9458 48.4088C65.9694 51.5611 63.5616 54.898 60.7189 58.4199L62.2752 59.6761ZM69.6373 49.476C70.661 47.8636 71.4447 46.4955 71.9759 45.3799C72.4871 44.3064 72.8331 43.3311 72.8331 42.556H70.8331C70.8331 42.8449 70.6724 43.4656 70.1702 44.5201C69.6881 45.5325 68.9518 46.8244 67.9489 48.404L69.6373 49.476ZM72.8331 42.556C72.8331 42.1326 72.6897 41.6567 72.2678 41.3191C71.8884 41.0157 71.4332 40.948 71.0731 40.948V42.948C71.2196 42.948 71.1444 42.9817 71.0184 42.8809C70.9485 42.825 70.8944 42.7512 70.8625 42.6746C70.8331 42.6041 70.8331 42.5571 70.8331 42.556H72.8331ZM71.0731 40.948C70.1882 40.948 69.2048 41.3318 68.1829 41.9158C67.1361 42.514 65.9326 43.3909 64.5787 44.5256L65.8634 46.0584C67.1695 44.9638 68.2714 44.1687 69.1752 43.6522C70.104 43.1215 70.7166 42.948 71.0731 42.948V40.948ZM64.3221 44.854C62.436 48.7254 59.8457 52.7025 56.5399 56.7847L58.0942 58.0433C61.4764 53.8668 64.1554 49.7626 66.1201 45.73L64.3221 44.854ZM56.5399 56.7847C54.8796 58.8349 53.5185 60.34 52.4501 61.3239C51.915 61.8167 51.4772 62.1564 51.1316 62.3674C50.9602 62.472 50.8265 62.5357 50.7276 62.5717C50.6272 62.6084 50.5859 62.608 50.5911 62.608V64.608C51.1505 64.608 51.6954 64.3664 52.1737 64.0744C52.6737 63.7692 53.2191 63.3347 53.805 62.7951C54.9786 61.7143 56.4105 60.1225 58.0942 58.0433L56.5399 56.7847ZM51.4271 63.62C51.7149 63.62 51.9656 63.5299 52.1492 63.4429C52.3415 63.3518 52.5283 63.231 52.7052 63.0996C53.0583 62.8372 53.4541 62.4699 53.8858 62.0217C54.7533 61.1211 55.8592 59.7954 57.1966 58.0631L55.6135 56.8409C54.2909 58.554 53.2372 59.8122 52.4453 60.6343C52.0474 61.0474 51.7386 61.3262 51.5122 61.4944C51.3993 61.5783 51.3276 61.619 51.2927 61.6356C51.2491 61.6563 51.3039 61.62 51.4271 61.62V63.62ZM57.1988 58.0603C59.8879 54.5516 62.1607 51.0605 64.0134 47.5866L62.2487 46.6454C60.4535 50.0115 58.2422 53.411 55.6114 56.8437L57.1988 58.0603ZM62.4536 46.3805C59.527 49.076 56.7446 52.064 54.106 55.3431L55.6641 56.5969C58.2442 53.3906 60.9592 50.476 63.8085 47.8515L62.4536 46.3805ZM54.1054 55.3438C52.8028 56.9657 51.8055 58.3249 51.1289 59.4129C50.7908 59.9564 50.5207 60.4515 50.3322 60.8913C50.1514 61.3132 50.0091 61.7666 50.0091 62.202H52.0091C52.0091 62.1688 52.0283 62.0109 52.1705 61.6792C52.3049 61.3654 52.5193 60.9642 52.8272 60.4691C53.4426 59.4797 54.3833 58.1917 55.6647 56.5962L54.1054 55.3438ZM50.0091 62.202C50.0091 62.4955 50.0831 62.8993 50.4065 63.2226C50.7298 63.546 51.1336 63.62 51.4271 63.62V61.62C51.4419 61.62 51.6367 61.6244 51.8207 61.8084C52.0047 61.9924 52.0091 62.1872 52.0091 62.202H50.0091Z" fill="#1B1415"/>
</svg>
