<svg width="45" height="45" viewBox="0 0 45 45" fill="none" xmlns="http://www.w3.org/2000/svg">
<rect width="45" height="45" fill="#FF005C"/>
<path d="M36.7594 12.5727C38.3022 11.658 39.4566 10.2178 40.007 8.5209C38.5573 9.37393 36.9712 9.97483 35.3172 10.2976C33.0241 7.89201 29.391 7.3066 26.4479 8.86848C23.5047 10.4304 21.9803 13.7529 22.7264 16.9795C16.7882 16.6838 11.2558 13.9021 7.50578 9.32648C5.54873 12.6741 6.54882 16.9535 9.79128 19.1061C8.61878 19.0687 7.47227 18.7539 6.44737 18.1879C6.44737 18.2186 6.44737 18.2493 6.44737 18.28C6.44804 21.7671 8.92626 24.7709 12.3728 25.462C11.2852 25.7554 10.1444 25.7986 9.03748 25.5883C10.0067 28.5704 12.7782 30.6134 15.937 30.6743C13.3208 32.7107 10.0898 33.815 6.76403 33.8096C6.17454 33.8105 5.5855 33.7768 5 33.7089C8.37728 35.8612 12.308 37.0035 16.3225 36.9995C21.9076 37.0376 27.275 34.854 31.2242 30.9372C35.1734 27.0204 37.3748 21.6973 37.336 16.1585C37.336 15.8411 37.3285 15.5253 37.3136 15.2113C38.76 14.1746 40.0084 12.8904 41 11.4189C39.6525 12.0113 38.2231 12.4002 36.7594 12.5727Z" fill="#025953"/>
</svg>
